<svg width="14" height="14" viewBox="0 0 14 14" fill="none" xmlns="http://www.w3.org/2000/svg">
<path d="M8.33331 5.00001V2.33334C8.33331 1.80291 8.1226 1.2942 7.74753 0.91913C7.37245 0.544057 6.86375 0.333344 6.33331 0.333344L3.66665 6.33334V13.6667H11.1866C11.5082 13.6703 11.8202 13.5576 12.0653 13.3493C12.3103 13.1411 12.4718 12.8513 12.52 12.5333L13.44 6.53334C13.469 6.34225 13.4561 6.14713 13.4022 5.96151C13.3483 5.77589 13.2547 5.60421 13.1279 5.45835C13.0011 5.3125 12.844 5.19596 12.6677 5.11682C12.4914 5.03768 12.2999 4.99782 12.1066 5.00001H8.33331ZM3.66665 13.6667H1.66665C1.31302 13.6667 0.973886 13.5262 0.723837 13.2762C0.473789 13.0261 0.333313 12.687 0.333313 12.3333V7.66668C0.333313 7.31306 0.473789 6.97392 0.723837 6.72387C0.973886 6.47382 1.31302 6.33334 1.66665 6.33334H3.66665" fill="#0275B1"/>
</svg>
